<svg width="143" height="24" viewBox="0 0 143 24" fill="none" xmlns="http://www.w3.org/2000/svg">
<g clip-path="url(#clip0_891_2382)">
<path d="M31.3047 11.1007V8.96975H32.6742V8.42117C32.6742 6.07898 34.0859 4.79199 36.2771 4.79199C38.0049 4.79199 39.1636 5.63594 39.5429 7.17614L37.6466 7.76705C37.4358 7.28168 37.1199 6.98633 36.5931 6.98633C35.9399 6.98633 35.6871 7.49277 35.6871 8.18903V8.96975H38.1101V11.1007H35.6871V18.338H32.6742V11.1007H31.3047Z" fill="#111111"/>
<path d="M43.4625 18.5914C40.4707 18.5914 38.4268 16.5657 38.4268 13.6542C38.4268 10.7634 40.4707 8.7168 43.4625 8.7168C46.4543 8.7168 48.5191 10.7634 48.5191 13.6542C48.5191 16.5657 46.4543 18.5914 43.4625 18.5914ZM43.4625 16.2914C44.7899 16.2914 45.4429 15.2153 45.4429 13.6542C45.4429 12.0928 44.7899 11.0167 43.4625 11.0167C42.114 11.0167 41.5029 12.0928 41.5029 13.6542C41.5029 15.2153 42.114 16.2914 43.4625 16.2914Z" fill="#111111"/>
<path d="M56.1688 8.96997H59.224V18.3382H56.1688V16.8824C55.6633 17.9375 54.6098 18.5914 53.198 18.5914C50.6696 18.5914 49.8691 16.8614 49.8691 14.8567V8.96997H52.9031V14.1181C52.9031 15.4474 53.3455 16.186 54.4623 16.186C55.6 16.186 56.1688 15.2367 56.1688 13.7385L56.1688 8.96997Z" fill="#111111"/>
<path d="M64.2187 18.3382H61.1846V8.97002H64.2187V10.4258C64.7244 9.39199 65.8621 8.7168 67.2736 8.7168C69.802 8.7168 70.645 10.4681 70.645 12.4726V18.3382H67.6108V13.211C67.6108 11.8606 67.1684 11.1222 66.0516 11.1222C64.8296 11.1222 64.2187 12.0928 64.2187 13.5696V18.3382Z" fill="#111111"/>
<path d="M79.3054 16.6713C78.8628 17.7685 77.7672 18.5914 76.1659 18.5914C73.4059 18.5914 71.9941 16.4181 71.9941 13.6541C71.9941 10.9111 73.4059 8.71673 76.1659 8.71673C77.7672 8.71673 78.8628 9.5396 79.3054 10.6578V5.04541H82.3604V18.3382H79.3054V16.6713ZM79.3054 13.5484C79.3054 12.0504 78.4415 11.1009 77.1984 11.1009C75.7446 11.1009 75.0703 12.1348 75.0703 13.6541C75.0703 15.1942 75.7446 16.2281 77.1984 16.2281C78.4415 16.2281 79.3054 15.2788 79.3054 13.7595V13.5484Z" fill="#111111"/>
<path d="M93.4659 15.2578C92.9814 17.3886 91.3168 18.5914 88.8727 18.5914C85.9019 18.5914 83.7949 16.7768 83.7949 13.8017C83.7949 10.8479 85.944 8.7168 88.8096 8.7168C91.9069 8.7168 93.5292 10.8479 93.5292 13.401V14.3292H86.7869C86.8711 15.5742 87.7982 16.2914 88.9781 16.2914C90.0316 16.2914 90.6848 15.8907 91.0218 15.0257L93.4659 15.2578ZM90.6005 12.7045C90.5372 11.7761 89.9473 10.9322 88.7884 10.9322C87.5664 10.9322 86.9975 11.7129 86.829 12.7045H90.6005Z" fill="#111111"/>
<path d="M101.769 11.9449C101.28 11.6716 100.726 11.5401 100.167 11.5651C98.9034 11.5651 98.0605 12.2824 98.0605 13.9073V18.3381H95.0264V8.96984H98.0605V10.6788C98.2346 10.1222 98.5779 9.63391 99.0425 9.28214C99.5071 8.93037 100.07 8.73266 100.652 8.71662C101.117 8.69764 101.576 8.83099 101.958 9.09645L101.769 11.9449Z" fill="#111111"/>
<path d="M106.11 21.7565H103.076V8.97002H106.11V10.6579C106.574 9.53967 107.648 8.7168 109.271 8.7168C112.01 8.7168 113.442 10.9111 113.442 13.6542C113.442 16.4182 112.01 18.5914 109.271 18.5914C107.648 18.5914 106.574 17.7686 106.11 16.6714V21.7565ZM106.11 13.7596C106.11 15.2789 106.974 16.2282 108.238 16.2282C109.671 16.2282 110.366 15.1942 110.366 13.6542C110.366 12.1349 109.671 11.1009 108.238 11.1009C106.974 11.1009 106.11 12.0504 106.11 13.5485V13.7596Z" fill="#111111"/>
<path d="M123.388 15.7853C123.388 16.2703 123.599 16.4814 123.978 16.4814C124.247 16.4865 124.514 16.4286 124.757 16.3125V17.9375C124.184 18.3585 123.487 18.574 122.777 18.5493C121.66 18.5493 120.838 17.9586 120.565 16.9036C120.038 17.9797 118.879 18.5493 117.425 18.5493C115.55 18.5493 114.37 17.5996 114.37 15.996C114.37 14.2028 115.719 13.4431 117.783 13.0422L120.396 12.5779V12.4092C120.396 11.5231 119.953 10.9956 119.026 10.9956C118.142 10.9956 117.699 11.5442 117.53 12.3247L114.707 12.1138C115.023 10.1093 116.519 8.7168 119.195 8.7168C121.639 8.7168 123.388 9.81396 123.388 12.367L123.388 15.7853ZM120.396 14.1817L118.858 14.4982C117.91 14.6878 117.32 14.9199 117.32 15.6585C117.32 16.2071 117.741 16.5446 118.394 16.5446C119.511 16.5446 120.396 15.7007 120.396 14.3714V14.1817Z" fill="#111111"/>
<path d="M126.065 11.1009H124.759V9.24421L125.433 9.13867C126.36 8.96992 126.634 8.48455 126.866 7.61954L127.182 6.37451H129.057V8.96991H131.543V11.1008H129.057V15.0045C129.057 15.8063 129.436 16.1438 130.153 16.1438C130.679 16.126 131.197 15.9964 131.67 15.7638V17.7685C130.974 18.296 130.174 18.5914 128.952 18.5914C127.435 18.5914 126.065 17.9374 126.065 15.8274L126.065 11.1009Z" fill="#111111"/>
<path d="M136.074 18.3382H133.04V5.04541H136.074V10.4257C136.58 9.39193 137.717 8.71674 139.129 8.71674C141.657 8.71674 142.5 10.468 142.5 12.4725V18.3382H139.466V13.2109C139.466 11.8606 139.024 11.1222 137.907 11.1222C136.685 11.1222 136.074 12.0927 136.074 13.5695V18.3382Z" fill="#111111"/>
<path d="M23.3892 12.0093C23.3853 7.87266 22.665 4.20039 21.1271 2.65633C19.5853 1.11229 16.647 0 11.7914 0C6.93568 0 4.00373 1.11229 2.46184 2.65633C0.920115 4.20039 0 7.87266 0 12.0054V12.0093C0.00386045 16.1459 0.923169 19.8182 2.46104 21.3623C4.00293 22.9063 6.94114 24 11.7968 24C16.6525 24 19.5844 22.9063 21.1263 21.3623C22.6681 19.8182 23.3892 16.1459 23.3892 12.0132V12.0093Z" fill="#443DD8"/>
<path d="M11.082 14.0019V14.0019C11.082 15.4688 12.2695 16.658 13.7343 16.658H13.7343C15.1991 16.658 16.3865 15.4688 16.3865 14.0019V14.0019C16.3865 12.535 15.1991 11.3459 13.7343 11.3459H13.7343C12.2695 11.3459 11.082 12.535 11.082 14.0019Z" fill="#B4B1EF"/>
<path d="M5.91211 6.1936V17.8209H9.78241V10.0694H17.5227V6.1936H5.91211Z" fill="white"/>
</g>
<defs>
<clipPath id="clip0_891_2382">
<rect width="142.5" height="24" fill="white"/>
</clipPath>
</defs>
</svg>
