<?xml version="1.0" encoding="UTF-8"?>
<svg width="102px" height="105px" viewBox="0 0 102 105" version="1.1" xmlns="http://www.w3.org/2000/svg" xmlns:xlink="http://www.w3.org/1999/xlink">
    <!-- Generator: Sketch 62 (91390) - https://sketch.com -->
    <title>Group</title>
    <desc>Created with Sketch.</desc>
    <g id="Page-1" stroke="none" stroke-width="1" fill="none" fill-rule="evenodd">
        <g id="Group" transform="translate(0.783000, 0.783000)" fill-rule="nonzero">
            <path d="M100.675,51.692 C100.658,33.886 97.558,18.08 90.938,11.433 C84.301,4.787 71.654,-1.42108547e-14 50.754,-1.42108547e-14 C29.853,-1.42108547e-14 17.233,4.787 10.596,11.433 C3.96,18.08 0,33.886 0,51.675 L0,51.692 C0.016,69.497 3.973,85.304 10.593,91.95 C17.23,98.596 29.877,103.304 50.777,103.304 C71.678,103.304 84.298,98.596 90.935,91.95 C97.571,85.304 100.675,69.497 100.675,51.708 L100.675,51.692 Z" id="Path" fill="#443DD8"></path>
            <path d="M47.698,60.269 L47.698,60.269 C47.698,66.583 52.81,71.701 59.115,71.701 L59.115,71.701 C65.42,71.701 70.531,66.583 70.531,60.269 L70.531,60.269 C70.531,53.955 65.42,48.836 59.115,48.836 L59.115,48.836 C52.81,48.836 47.698,53.955 47.698,60.269 Z" id="Path" fill="#B4B1EF"></path>
            <polygon id="Path" fill="#FFFFFF" points="25.447 26.659 25.447 76.707 42.107 76.707 42.107 43.342 75.424 43.342 75.424 26.659"></polygon>
        </g>
    </g>
</svg>